<?xml version="1.0" encoding="UTF-8"?>
<svg id="Layer_1" data-name="Layer 1" xmlns="http://www.w3.org/2000/svg" viewBox="0 0 1100 120">
  <defs>
    <style>
      .cls-1 {
        fill: #aab2c8;
      }

      .cls-2 {
        isolation: isolate;
      }

      .cls-3 {
        fill: #fff;
      }
    </style>
  </defs>
  <g>
    <path class="cls-3" d="M177.49,80.09c-2.55,2.38-7.84,7.22-18.32,7.22-17.35,0-28-14.09-28-32.41,0-19.99,12.94-33.29,30.64-33.29,16.47,0,24.48,10.57,27.39,14.35l-11.8,7.13c-2.2-3.35-5.81-8.81-14.44-8.81-11.8,0-16.29,9.77-16.29,20.17,0,7.04,1.94,12.77,4.93,15.85,2.38,2.55,6.6,4.49,11.36,4.49,2.82,0,5.99-.7,8.54-2.38,4.05-2.64,4.58-5.99,5.02-9.25h-13.91v-11.8h27.03v34.52h-12.15v-5.81Z"/>
    <path class="cls-3" d="M199.85,23.64h13.38v10.48h-13.38v-10.48ZM199.85,39.85h13.38v46.05h-13.38v-46.05Z"/>
    <path class="cls-3" d="M266.6,23.73v62.17h-12.33v-4.31c-2.11,2.11-5.64,5.55-12.42,5.55-4.58,0-9.33-1.76-12.94-5.28-6.69-6.43-6.69-15.67-6.69-18.67,0-17.35,9.86-24.48,19.11-24.48,6.08,0,9.69,2.82,12.15,4.67v-19.64h13.12ZM253.74,62.92c0-2.11,0-7.84-2.91-11.36-.62-.79-2.55-2.73-5.28-2.73-9.6,0-9.6,12.06-9.6,14.09,0,6.43,1.76,14.27,8.63,14.27,1.5,0,3.08-.53,4.4-1.41,4.76-3.26,4.76-10.3,4.76-12.86Z"/>
    <path class="cls-3" d="M321.55,74.19c-1.59,2.38-3.17,4.67-5.55,6.87-3.96,3.7-9.95,6.52-17.35,6.52-13.65,0-23.25-8.72-23.25-23.78,0-11.1,5.46-25.36,23.6-25.36,2.73,0,10.65.26,16.55,6.6,5.99,6.43,6.34,15.41,6.52,20.61h-32.85c-.09,5.72,3.17,11.45,10.48,11.45s9.95-4.84,11.62-8.1l10.21,5.2ZM308.07,57.19c-.26-1.94-.62-4.49-2.55-6.52-1.67-1.67-4.23-2.55-6.6-2.55-3.26,0-5.55,1.58-6.87,2.99-1.85,2.03-2.29,4.14-2.73,6.08h18.76Z"/>
    <path class="cls-3" d="M376.14,62.83c0,11.62-6.69,24.39-24.66,24.39-12.95,0-24.74-7.4-24.74-24.39,0-14.09,8.89-25.27,26.51-24.3,18.76,1.06,22.9,15.94,22.9,24.3ZM342.68,53.76c-1.67,2.64-2.29,5.81-2.29,8.98,0,7.31,3.52,13.74,11.1,13.74s10.92-5.9,10.92-13.12c0-5.11-1.23-9.07-3.79-11.54-2.82-2.64-5.99-2.73-7.93-2.55-3.87.26-6.16,1.58-8.01,4.49Z"/>
    <path class="cls-3" d="M398.77,44.07c1.32-1.41,2.2-2.47,4.58-3.61,2.11-.88,5.11-1.67,8.37-1.67,2.73,0,5.81.53,8.19,1.85,4.84,2.55,6.08,6.69,6.08,13.83v31.44h-13.47v-25.89c0-4.14-.09-5.64-.62-6.87-1.06-2.47-3.43-3.52-6.08-3.52-7.13,0-7.13,5.72-7.13,11.45v24.83h-13.56v-45.88h13.65v4.05Z"/>
    <path class="cls-3" d="M515.97,71.72c-2.29,3.61-4.49,7.13-9.42,10.57-2.64,1.85-8.72,5.46-17.35,5.46-16.47,0-29.76-11.98-29.76-33.02,0-18.4,12.5-32.93,30.12-32.93,7.13,0,13.47,2.47,18.14,6.16,4.31,3.43,6.34,6.87,8.1,9.95l-12.33,6.16c-.88-2.03-1.94-4.14-4.67-6.43-2.99-2.38-5.99-3.08-8.54-3.08-10.04,0-15.32,9.33-15.32,19.73,0,13.65,6.96,20.43,15.32,20.43s11.36-5.64,13.47-9.25l12.24,6.25Z"/>
    <path class="cls-3" d="M568.81,62.83c0,11.62-6.69,24.39-24.66,24.39-12.95,0-24.75-7.4-24.75-24.39,0-14.09,8.89-25.27,26.51-24.3,18.76,1.06,22.9,15.94,22.9,24.3ZM535.34,53.76c-1.67,2.64-2.29,5.81-2.29,8.98,0,7.31,3.52,13.74,11.1,13.74s10.92-5.9,10.92-13.12c0-5.11-1.23-9.07-3.79-11.54-2.82-2.64-5.99-2.73-7.93-2.55-3.87.26-6.16,1.58-8.01,4.49Z"/>
    <path class="cls-3" d="M591.17,23.64v21.13c1.94-1.94,5.9-6.08,13.21-6.08,3.35,0,7.04.97,9.77,3.26,4.05,3.43,4.76,7.75,4.76,13.74v30.2h-13.47v-24.04c0-3.7-.09-5.46-.62-7.04-1.32-4.14-4.93-4.58-6.34-4.58-2.38,0-4.4,1.14-5.55,2.64-1.76,2.38-1.76,6.16-1.76,10.13v22.9h-13.56V23.64h13.56Z"/>
    <path class="cls-3" d="M673.77,74.19c-1.59,2.38-3.17,4.67-5.55,6.87-3.96,3.7-9.95,6.52-17.35,6.52-13.65,0-23.25-8.72-23.25-23.78,0-11.1,5.46-25.36,23.6-25.36,2.73,0,10.65.26,16.55,6.6,5.99,6.43,6.34,15.41,6.52,20.61h-32.85c-.09,5.72,3.17,11.45,10.48,11.45s9.95-4.84,11.62-8.1l10.21,5.2ZM660.3,57.19c-.26-1.94-.62-4.49-2.55-6.52-1.67-1.67-4.23-2.55-6.6-2.55-3.26,0-5.55,1.58-6.87,2.99-1.85,2.03-2.29,4.14-2.73,6.08h18.76Z"/>
    <path class="cls-3" d="M695.96,44.07c1.32-1.41,2.2-2.47,4.58-3.61,2.11-.88,5.11-1.67,8.37-1.67,2.73,0,5.81.53,8.19,1.85,4.84,2.55,6.08,6.69,6.08,13.83v31.44h-13.47v-25.89c0-4.14-.09-5.64-.62-6.87-1.06-2.47-3.43-3.52-6.08-3.52-7.13,0-7.13,5.72-7.13,11.45v24.83h-13.56v-45.88h13.65v4.05Z"/>
  </g>
  <g>
    <path class="cls-3" d="M43.32,67.06c-1.13.16-2.28.24-3.45.24-3.38,0-6.53-.69-9.47-2.08-2.94-1.38-5.5-3.22-7.7-5.52-2.19-2.3-3.93-4.97-5.22-8.01-1.28-3.04-1.92-6.25-1.92-9.63s.64-6.5,1.92-9.58c1.28-3.07,3.02-5.76,5.22-8.06,2.19-2.3,4.76-4.14,7.7-5.52,2.94-1.38,6.09-2.08,9.47-2.08,4.05,0,7.82,1.08,11.29,3.24,3.48,2.16,6.3,4.83,8.46,8l12.15-7.39c-3.44-5.2-7.95-9.36-13.52-12.46-5.57-3.11-11.7-4.66-18.38-4.66-5.27,0-10.23,1.01-14.89,3.04-4.66,2.03-8.73,4.78-12.21,8.26-3.48,3.48-6.23,7.57-8.26,12.26-2.03,4.7-3.04,9.68-3.04,14.95s1.01,10.24,3.04,14.9c2.03,4.66,4.78,8.73,8.26,12.21,3.48,3.48,7.55,6.23,12.21,8.26.83.36-24.97,38.99-24.97,38.99l43.32-49.38Z"/>
    <polygon class="cls-3" points="34.7 51.3 57.05 51.3 68.15 38.57 34.7 38.57 34.7 51.3"/>
    <path class="cls-3" d="M84.58,93.21c-1.34,1.34-2.82,2.51-4.44,3.51-1.62,1-3.34,1.78-5.14,2.34-1.81.56-3.68.84-5.61.84-3.12,0-6.03-.64-8.74-1.92-2.71-1.28-5.07-2.98-7.06-5.1-2-2.12-3.58-4.58-4.77-7.39-1.02-2.42-1.6-4.95-1.74-7.6l-10.5,12.05c.06.14.12.28.18.42,1.87,4.3,4.41,8.06,7.62,11.28,3.21,3.21,6.97,5.76,11.27,7.63,4.3,1.87,8.88,2.81,13.75,2.81,3.3,0,6.5-.44,9.59-1.31,3.09-.87,5.95-2.11,8.6-3.7,2.65-1.59,5.06-3.49,7.25-5.71,2.18-2.22,4.02-4.69,5.52-7.44l-12.25-4.96c-1,1.5-2.17,2.91-3.51,4.26Z"/>
    <path class="cls-3" d="M87.58,46.14c-2.14-1.28-1.93,0-3.47-1.45-.21-.19,26.64-39.82,26.64-39.82l-42.27,48.45c.3-.01.6-.02.91-.02,1.93,0,3.8.28,5.61.84,1.81.56,3.52,1.34,5.14,2.34,1.62,1,3.1,2.15,4.44,3.46,1.34,1.31,2.51,2.71,3.51,4.21l12.25-4.96c-1.5-2.68-3.34-5.13-5.52-7.34-2.18-2.22-4.6-4.12-7.25-5.71Z"/>
  </g>
  <g class="cls-2">
    <path class="cls-1" d="M778,66.27c-.49,3.8-2.7,9.61-11.25,9.61-7.9,0-12.65-5.13-12.65-13.64,0-14.13,10.3-14.55,12.54-14.55,8.47,0,10.6,4.94,11.02,9h-3.57c-.19-1.94-1.37-6-7.45-6-6.65,0-8.74,5.62-8.74,11.4,0,6.19,3.38,10.79,9,10.79,4.26,0,7.33-2.81,7.52-6.61h3.57Z"/>
    <path class="cls-1" d="M794.39,57.38c-4.48.19-7.11,1.9-7.41,6.76-.04.34-.04.68-.04,1.03v9.92h-3.34v-19.3h3.34v3.72h.08c.91-2.85,3.69-4.33,6.38-4.45l.99-.04v2.36Z"/>
    <path class="cls-1" d="M815.77,69.5c-.49,2.74-2.51,6.34-8.43,6.34-9.58,0-9.76-8.59-9.76-10.33,0-2.66.49-10.49,9.42-10.49,7.71,0,8.74,6.04,8.93,10.22,0,.3.04.65.04.95h-14.86c0,3.31,1.71,7.29,6.12,7.29,3.23,0,4.94-1.86,5.36-3.99h3.19ZM812.42,63.84c-.11-2.58-.99-6.46-5.36-6.46-4.94,0-5.97,4.03-5.97,6.46h11.32Z"/>
    <path class="cls-1" d="M821.29,61.49c0-2.58,1.37-6.46,8.21-6.46,3.12,0,7.79.87,7.67,6.5l-.19,8.93c0,1.48-.04,2.39,2.01,2.28v2.36c-.46.11-.8.15-1.52.15-1.9,0-3.04-.3-3.46-2.81-1.33,2.43-3.99,3.42-6.61,3.42-4.07,0-6.8-1.75-6.8-5.81,0-3.34,1.71-5.4,9.46-6.12,2.85-.19,3.76-.15,3.76-2.66,0-.91-.08-3.88-4.33-3.88-1.22,0-5.13.08-5.02,4.1h-3.19ZM833.83,65.21c-.99.8-2.13.65-4.26.95-2.96.49-5.51.65-5.51,3.76,0,2.28,1.56,3.57,3.72,3.57,2.62,0,5.66-1.29,5.96-6.65l.08-1.63Z"/>
    <path class="cls-1" d="M845.42,55.79v-5.77h3.34v5.77h4.1v2.36h-4.1v12.27c0,1.41-.11,2.66,2.01,2.66.72,0,1.44-.15,2.09-.34v2.36c-1.06.46-2.32.76-3.5.76-3.99,0-3.95-2.74-3.95-4.75v-12.96h-3.46v-2.36h3.46Z"/>
    <path class="cls-1" d="M857.78,48.49h3.34v3.5h-3.34v-3.5ZM861.12,55.79v19.3h-3.34v-19.3h3.34Z"/>
    <path class="cls-1" d="M880.15,55.79h3.61l-7.14,19.3h-3.88l-7.14-19.3h3.61l5.47,15.96,5.47-15.96Z"/>
    <path class="cls-1" d="M904.77,69.5c-.49,2.74-2.51,6.34-8.43,6.34-9.58,0-9.76-8.59-9.76-10.33,0-2.66.49-10.49,9.42-10.49,7.71,0,8.74,6.04,8.93,10.22,0,.3.04.65.04.95h-14.86c0,3.31,1.71,7.29,6.12,7.29,3.23,0,4.94-1.86,5.36-3.99h3.19ZM901.42,63.84c-.11-2.58-.99-6.46-5.36-6.46-4.94,0-5.97,4.03-5.97,6.46h11.32Z"/>
    <path class="cls-1" d="M933.31,48.49c5.43,0,9,2.13,9,7.64,0,4.98-2.47,8.36-9.35,8.36h-6.92v10.6h-3.57v-26.6h10.83ZM926.05,61.49h6.54c4.26,0,6.08-1.79,6.08-5.28,0-3.31-1.98-4.71-6.08-4.71h-6.54v9.99Z"/>
    <path class="cls-1" d="M958.32,57.38c-4.48.19-7.11,1.9-7.41,6.76-.04.34-.04.68-.04,1.03v9.92h-3.34v-19.3h3.34v3.72h.08c.91-2.85,3.69-4.33,6.38-4.45l.99-.04v2.36Z"/>
    <path class="cls-1" d="M970.93,55.03c7.03,0,9.5,5.28,9.5,10.41s-2.47,10.41-9.5,10.41-9.5-5.28-9.5-10.41,2.47-10.41,9.5-10.41ZM970.93,73.49c1.48,0,5.96-.34,5.96-8.09s-4.48-8.09-5.96-8.09-5.97.34-5.97,8.09,4.48,8.09,5.97,8.09Z"/>
    <path class="cls-1" d="M1003.75,48.49v26.6h-3.12v-2.66h-.11c-.65,1.25-2.32,3.42-6.38,3.42-5.62,0-8.78-4.26-8.78-10.45,0-4.07,1.25-10.37,8.7-10.37,2.58,0,4.79.65,6.35,3.27v-9.8h3.34ZM994.86,73.49c2.92,0,5.77-2.2,5.77-8.17,0-5.58-2.77-7.94-5.96-7.94s-5.78,2.36-5.78,8.02c0,7.29,4.03,8.09,5.97,8.09Z"/>
    <path class="cls-1" d="M1023.47,75.09v-2.74h-.08c-1.94,3.34-5.85,3.5-6.53,3.5-5.7,0-6.35-4.37-6.35-7.26v-12.8h3.34v11.82c0,4.86,1.67,5.89,4.07,5.89,5.62,0,5.55-5.81,5.55-7.18v-10.52h3.34v19.3h-3.34Z"/>
    <path class="cls-1" d="M1050.51,68.21c-.19,2.28-1.52,7.64-8.4,7.64-1.94,0-9.42-.27-9.42-10.56,0-4.48,1.71-10.26,9.19-10.26,5.43,0,8.05,3.19,8.47,6.8h-3.19c-.72-4.29-4.03-4.45-5.21-4.45-4.18,0-5.74,3.53-5.74,7.9s1.71,8.21,5.97,8.21c3.8,0,5.01-3.15,5.13-5.28h3.19Z"/>
    <path class="cls-1" d="M1073.38,69.5c-.49,2.74-2.51,6.34-8.43,6.34-9.58,0-9.76-8.59-9.76-10.33,0-2.66.49-10.49,9.42-10.49,7.71,0,8.74,6.04,8.93,10.22,0,.3.04.65.04.95h-14.86c0,3.31,1.71,7.29,6.12,7.29,3.23,0,4.94-1.86,5.36-3.99h3.19ZM1070.03,63.84c-.11-2.58-.99-6.46-5.36-6.46-4.94,0-5.97,4.03-5.97,6.46h11.32Z"/>
    <path class="cls-1" d="M1090.18,57.38c-4.48.19-7.11,1.9-7.41,6.76-.04.34-.04.68-.04,1.03v9.92h-3.34v-19.3h3.34v3.72h.08c.91-2.85,3.69-4.33,6.38-4.45l.99-.04v2.36Z"/>
  </g>
</svg>