<?xml version="1.0" encoding="UTF-8"?>
<svg id="Layer_1" data-name="Layer 1" xmlns="http://www.w3.org/2000/svg" viewBox="0 0 670 120">
  <defs>
    <style>
      .cls-1 {
        fill: #aab2c8;
      }

      .cls-2 {
        isolation: isolate;
      }

      .cls-3 {
        fill: #0f2557;
      }
    </style>
  </defs>
  <g>
    <path class="cls-3" d="M170.07,57.71c-2.34,2.17-7.17,6.6-16.75,6.6-15.87,0-25.61-12.89-25.61-29.64,0-18.28,11.84-30.44,28.03-30.44,15.06,0,22.39,9.66,25.05,13.13l-10.79,6.52c-2.01-3.06-5.32-8.05-13.21-8.05-10.79,0-14.9,8.94-14.9,18.44,0,6.44,1.77,11.68,4.51,14.5,2.17,2.34,6.04,4.11,10.39,4.11,2.58,0,5.48-.64,7.81-2.17,3.71-2.42,4.19-5.48,4.59-8.46h-12.73v-10.79h24.73v31.57h-11.11v-5.32Z"/>
    <path class="cls-3" d="M190.53,6.08h12.24v9.58h-12.24V6.08ZM190.53,20.9h12.24v42.12h-12.24V20.9Z"/>
    <path class="cls-3" d="M251.58,6.16v56.86h-11.28v-3.95c-1.93,1.93-5.15,5.07-11.36,5.07-4.19,0-8.54-1.61-11.84-4.83-6.12-5.88-6.12-14.34-6.12-17.07,0-15.87,9.02-22.39,17.48-22.39,5.56,0,8.86,2.58,11.11,4.27V6.16h12ZM239.82,42c0-1.93,0-7.17-2.66-10.39-.56-.73-2.34-2.5-4.83-2.5-8.78,0-8.78,11.03-8.78,12.89,0,5.88,1.61,13.05,7.89,13.05,1.37,0,2.82-.48,4.03-1.29,4.35-2.98,4.35-9.42,4.35-11.76Z"/>
    <path class="cls-3" d="M301.84,52.31c-1.45,2.17-2.9,4.27-5.08,6.28-3.62,3.38-9.1,5.96-15.87,5.96-12.48,0-21.26-7.97-21.26-21.75,0-10.15,4.99-23.2,21.59-23.2,2.5,0,9.75.24,15.14,6.04,5.48,5.88,5.8,14.09,5.96,18.85h-30.04c-.08,5.24,2.9,10.47,9.58,10.47s9.1-4.43,10.63-7.41l9.34,4.75ZM289.51,36.77c-.24-1.77-.56-4.11-2.34-5.96-1.53-1.53-3.87-2.34-6.04-2.34-2.98,0-5.07,1.45-6.28,2.74-1.69,1.85-2.09,3.79-2.5,5.56h17.16Z"/>
    <path class="cls-3" d="M351.77,41.92c0,10.63-6.12,22.31-22.55,22.31-11.84,0-22.63-6.77-22.63-22.31,0-12.89,8.13-23.12,24.24-22.23,17.16.97,20.94,14.58,20.94,22.23ZM321.16,33.63c-1.53,2.42-2.09,5.32-2.09,8.22,0,6.68,3.22,12.56,10.15,12.56s9.99-5.4,9.99-12c0-4.67-1.13-8.3-3.46-10.55-2.58-2.42-5.48-2.5-7.25-2.34-3.54.24-5.64,1.45-7.33,4.11Z"/>
    <path class="cls-3" d="M372.47,24.77c1.21-1.29,2.01-2.25,4.19-3.3,1.93-.81,4.67-1.53,7.65-1.53,2.5,0,5.32.48,7.49,1.69,4.43,2.34,5.56,6.12,5.56,12.65v28.75h-12.32v-23.68c0-3.79-.08-5.15-.56-6.28-.97-2.25-3.14-3.22-5.56-3.22-6.52,0-6.52,5.24-6.52,10.47v22.71h-12.4V21.06h12.48v3.71Z"/>
    <path class="cls-3" d="M479.67,50.06c-2.09,3.3-4.11,6.52-8.62,9.66-2.42,1.69-7.97,4.99-15.87,4.99-15.06,0-27.22-10.95-27.22-30.2,0-16.83,11.44-30.12,27.55-30.12,6.52,0,12.32,2.25,16.59,5.64,3.95,3.14,5.8,6.28,7.41,9.1l-11.28,5.64c-.81-1.85-1.77-3.79-4.27-5.88-2.74-2.17-5.48-2.82-7.81-2.82-9.18,0-14.01,8.54-14.01,18.04,0,12.48,6.36,18.69,14.01,18.69s10.39-5.15,12.32-8.46l11.2,5.72Z"/>
    <path class="cls-3" d="M527.99,41.92c0,10.63-6.12,22.31-22.55,22.31-11.84,0-22.63-6.77-22.63-22.31,0-12.89,8.14-23.12,24.24-22.23,17.16.97,20.94,14.58,20.94,22.23ZM497.38,33.63c-1.53,2.42-2.09,5.32-2.09,8.22,0,6.68,3.22,12.56,10.15,12.56s9.99-5.4,9.99-12c0-4.67-1.13-8.3-3.46-10.55-2.58-2.42-5.48-2.5-7.25-2.34-3.54.24-5.64,1.45-7.33,4.11Z"/>
    <path class="cls-3" d="M548.45,6.08v19.33c1.77-1.77,5.4-5.56,12.08-5.56,3.06,0,6.44.89,8.94,2.98,3.71,3.14,4.35,7.09,4.35,12.56v27.63h-12.32v-21.99c0-3.38-.08-4.99-.56-6.44-1.21-3.79-4.51-4.19-5.8-4.19-2.17,0-4.03,1.05-5.07,2.42-1.61,2.17-1.61,5.64-1.61,9.26v20.94h-12.4V6.08h12.4Z"/>
    <path class="cls-3" d="M623.99,52.31c-1.45,2.17-2.9,4.27-5.08,6.28-3.62,3.38-9.1,5.96-15.87,5.96-12.48,0-21.26-7.97-21.26-21.75,0-10.15,4.99-23.2,21.59-23.2,2.5,0,9.75.24,15.14,6.04,5.48,5.88,5.8,14.09,5.96,18.85h-30.04c-.08,5.24,2.9,10.47,9.58,10.47s9.1-4.43,10.63-7.41l9.34,4.75ZM611.67,36.77c-.24-1.77-.56-4.11-2.34-5.96-1.53-1.53-3.87-2.34-6.04-2.34-2.98,0-5.07,1.45-6.28,2.74-1.69,1.85-2.09,3.79-2.5,5.56h17.16Z"/>
    <path class="cls-3" d="M644.29,24.77c1.21-1.29,2.01-2.25,4.19-3.3,1.93-.81,4.67-1.53,7.65-1.53,2.5,0,5.32.48,7.49,1.69,4.43,2.34,5.56,6.12,5.56,12.65v28.75h-12.32v-23.68c0-3.79-.08-5.15-.56-6.28-.97-2.25-3.14-3.22-5.56-3.22-6.52,0-6.52,5.24-6.52,10.47v22.71h-12.4V21.06h12.48v3.71Z"/>
  </g>
  <g>
    <path class="cls-3" d="M43.49,67.34c-1.13.16-2.28.24-3.45.24-3.38,0-6.53-.69-9.47-2.08-2.94-1.38-5.5-3.22-7.7-5.52-2.19-2.3-3.93-4.97-5.22-8.01-1.28-3.04-1.92-6.25-1.92-9.63s.64-6.5,1.92-9.58c1.28-3.07,3.02-5.76,5.22-8.06,2.19-2.3,4.76-4.14,7.7-5.52,2.94-1.38,6.09-2.08,9.47-2.08,4.05,0,7.82,1.08,11.29,3.24,3.48,2.16,6.3,4.83,8.46,8l12.15-7.39c-3.44-5.2-7.95-9.36-13.52-12.46-5.57-3.11-11.7-4.66-18.38-4.66-5.27,0-10.23,1.01-14.89,3.04-4.66,2.03-8.73,4.78-12.21,8.26-3.48,3.48-6.23,7.57-8.26,12.26-2.03,4.7-3.04,9.68-3.04,14.95s1.01,10.24,3.04,14.9c2.03,4.66,4.78,8.73,8.26,12.21,3.48,3.48,7.55,6.23,12.21,8.26.83.36-24.97,38.99-24.97,38.99l43.32-49.38Z"/>
    <polygon class="cls-3" points="34.87 51.58 57.23 51.58 68.32 38.85 34.87 38.85 34.87 51.58"/>
    <path class="cls-3" d="M84.76,93.49c-1.34,1.34-2.82,2.51-4.44,3.51-1.62,1-3.34,1.78-5.14,2.34-1.81.56-3.68.84-5.61.84-3.12,0-6.03-.64-8.74-1.92-2.71-1.28-5.07-2.98-7.06-5.1-2-2.12-3.58-4.58-4.77-7.39-1.02-2.42-1.6-4.95-1.74-7.6l-10.5,12.05c.06.14.12.28.18.42,1.87,4.3,4.41,8.06,7.62,11.28,3.21,3.21,6.97,5.76,11.27,7.63,4.3,1.87,8.88,2.81,13.75,2.81,3.3,0,6.5-.44,9.59-1.31,3.09-.87,5.95-2.11,8.6-3.7,2.65-1.59,5.06-3.49,7.25-5.71,2.18-2.22,4.02-4.69,5.52-7.44l-12.25-4.96c-1,1.5-2.17,2.91-3.51,4.26Z"/>
    <path class="cls-3" d="M87.75,46.42c-2.14-1.28-1.93,0-3.47-1.45-.21-.19,26.64-39.82,26.64-39.82l-42.27,48.45c.3-.01.6-.02.91-.02,1.93,0,3.8.28,5.61.84,1.81.56,3.52,1.34,5.14,2.34,1.62,1,3.1,2.15,4.44,3.46,1.34,1.31,2.51,2.71,3.51,4.21l12.25-4.96c-1.5-2.68-3.34-5.13-5.52-7.34-2.18-2.22-4.6-4.12-7.25-5.71Z"/>
  </g>
  <g class="cls-2">
    <path class="cls-1" d="M357,99.51c-.49,3.8-2.7,9.61-11.25,9.61-7.9,0-12.65-5.13-12.65-13.64,0-14.13,10.3-14.55,12.54-14.55,8.47,0,10.6,4.94,11.02,9h-3.57c-.19-1.94-1.37-6-7.45-6-6.65,0-8.74,5.62-8.74,11.4,0,6.19,3.38,10.79,9,10.79,4.26,0,7.33-2.81,7.52-6.61h3.57Z"/>
    <path class="cls-1" d="M373.39,90.62c-4.48.19-7.11,1.9-7.41,6.76-.04.34-.04.68-.04,1.03v9.92h-3.34v-19.3h3.34v3.72h.08c.91-2.85,3.69-4.33,6.38-4.45l.99-.04v2.36Z"/>
    <path class="cls-1" d="M394.77,102.74c-.49,2.74-2.51,6.34-8.43,6.34-9.58,0-9.76-8.59-9.76-10.33,0-2.66.49-10.49,9.42-10.49,7.71,0,8.74,6.04,8.93,10.22,0,.3.04.65.04.95h-14.86c0,3.31,1.71,7.29,6.12,7.29,3.23,0,4.94-1.86,5.36-3.99h3.19ZM391.42,97.08c-.11-2.58-.99-6.46-5.36-6.46-4.94,0-5.97,4.03-5.97,6.46h11.32Z"/>
    <path class="cls-1" d="M400.29,94.72c0-2.58,1.37-6.46,8.21-6.46,3.12,0,7.79.87,7.67,6.5l-.19,8.93c0,1.48-.04,2.39,2.01,2.28v2.36c-.46.11-.8.15-1.52.15-1.9,0-3.04-.3-3.46-2.81-1.33,2.43-3.99,3.42-6.61,3.42-4.07,0-6.8-1.75-6.8-5.81,0-3.34,1.71-5.4,9.46-6.12,2.85-.19,3.76-.15,3.76-2.66,0-.91-.08-3.88-4.33-3.88-1.22,0-5.13.08-5.02,4.1h-3.19ZM412.83,98.44c-.99.8-2.13.65-4.26.95-2.96.49-5.51.65-5.51,3.76,0,2.28,1.56,3.57,3.72,3.57,2.62,0,5.66-1.29,5.96-6.65l.08-1.63Z"/>
    <path class="cls-1" d="M424.42,89.02v-5.77h3.34v5.77h4.1v2.36h-4.1v12.27c0,1.41-.11,2.66,2.01,2.66.72,0,1.44-.15,2.09-.34v2.36c-1.06.46-2.32.76-3.5.76-3.99,0-3.95-2.74-3.95-4.75v-12.96h-3.46v-2.36h3.46Z"/>
    <path class="cls-1" d="M436.78,81.73h3.34v3.5h-3.34v-3.5ZM440.12,89.02v19.3h-3.34v-19.3h3.34Z"/>
    <path class="cls-1" d="M459.15,89.02h3.61l-7.14,19.3h-3.88l-7.14-19.3h3.61l5.47,15.96,5.47-15.96Z"/>
    <path class="cls-1" d="M483.77,102.74c-.49,2.74-2.51,6.34-8.43,6.34-9.58,0-9.76-8.59-9.76-10.33,0-2.66.49-10.49,9.42-10.49,7.71,0,8.74,6.04,8.93,10.22,0,.3.04.65.04.95h-14.86c0,3.31,1.71,7.29,6.12,7.29,3.23,0,4.94-1.86,5.36-3.99h3.19ZM480.42,97.08c-.11-2.58-.99-6.46-5.36-6.46-4.94,0-5.97,4.03-5.97,6.46h11.32Z"/>
    <path class="cls-1" d="M512.31,81.73c5.43,0,9,2.13,9,7.64,0,4.98-2.47,8.36-9.35,8.36h-6.92v10.6h-3.57v-26.6h10.83ZM505.05,94.72h6.54c4.26,0,6.08-1.79,6.08-5.28,0-3.31-1.98-4.71-6.08-4.71h-6.54v9.99Z"/>
    <path class="cls-1" d="M537.32,90.62c-4.48.19-7.11,1.9-7.41,6.76-.04.34-.04.68-.04,1.03v9.92h-3.34v-19.3h3.34v3.72h.08c.91-2.85,3.69-4.33,6.38-4.45l.99-.04v2.36Z"/>
    <path class="cls-1" d="M549.93,88.26c7.03,0,9.5,5.28,9.5,10.41s-2.47,10.41-9.5,10.41-9.5-5.28-9.5-10.41,2.47-10.41,9.5-10.41ZM549.93,106.73c1.48,0,5.96-.34,5.96-8.09s-4.48-8.09-5.96-8.09-5.97.34-5.97,8.09,4.48,8.09,5.97,8.09Z"/>
    <path class="cls-1" d="M582.75,81.73v26.6h-3.12v-2.66h-.11c-.65,1.25-2.32,3.42-6.38,3.42-5.62,0-8.78-4.26-8.78-10.45,0-4.07,1.25-10.37,8.7-10.37,2.58,0,4.79.65,6.35,3.27v-9.8h3.34ZM573.86,106.73c2.92,0,5.77-2.2,5.77-8.17,0-5.58-2.77-7.94-5.96-7.94s-5.78,2.36-5.78,8.02c0,7.29,4.03,8.09,5.97,8.09Z"/>
    <path class="cls-1" d="M602.47,108.32v-2.74h-.08c-1.94,3.34-5.85,3.5-6.53,3.5-5.7,0-6.35-4.37-6.35-7.26v-12.8h3.34v11.82c0,4.86,1.67,5.89,4.07,5.89,5.62,0,5.55-5.81,5.55-7.18v-10.52h3.34v19.3h-3.34Z"/>
    <path class="cls-1" d="M629.51,101.45c-.19,2.28-1.52,7.64-8.4,7.64-1.94,0-9.42-.27-9.42-10.56,0-4.48,1.71-10.26,9.19-10.26,5.43,0,8.05,3.19,8.47,6.8h-3.19c-.72-4.29-4.03-4.45-5.21-4.45-4.18,0-5.74,3.53-5.74,7.9s1.71,8.21,5.97,8.21c3.8,0,5.01-3.15,5.13-5.28h3.19Z"/>
    <path class="cls-1" d="M652.38,102.74c-.49,2.74-2.51,6.34-8.43,6.34-9.58,0-9.76-8.59-9.76-10.33,0-2.66.49-10.49,9.42-10.49,7.71,0,8.74,6.04,8.93,10.22,0,.3.04.65.04.95h-14.86c0,3.31,1.71,7.29,6.12,7.29,3.23,0,4.94-1.86,5.36-3.99h3.19ZM649.03,97.08c-.11-2.58-.99-6.46-5.36-6.46-4.94,0-5.97,4.03-5.97,6.46h11.32Z"/>
    <path class="cls-1" d="M669.18,90.62c-4.48.19-7.11,1.9-7.41,6.76-.04.34-.04.68-.04,1.03v9.92h-3.34v-19.3h3.34v3.72h.08c.91-2.85,3.69-4.33,6.38-4.45l.99-.04v2.36Z"/>
  </g>
</svg>